<svg xmlns="http://www.w3.org/2000/svg" viewBox="0 0 48 48" fill="none">
  <circle cx="24" cy="24" r="22" fill="#6C4DC4"/>
  <path d="M12 32.5c0-4 1.5-8.2 4-12 1.8-2.7 3.8-4.8 5.4-5.8 1-.6 1.8-.7 2.5-.2.8.6 1.6 2 2.5 4l.5 1.2c.7 1.7 1.3 3 1.8 3.8.6.9 1.2 1.2 1.8 1.2.8 0 1.6-.7 2.5-2.1 1.3-2 2.2-4.5 2.5-6.8.1-.6.3-.8.7-.8.5 0 .8.4.8 1 0 3-1 6.5-3 9.5-1.5 2.3-3.2 3.5-4.8 3.5-1.5 0-2.7-1-3.7-3l-1.5-3.2c-.6-1.3-1.3-2.8-2-3.7-.5-.5-1-.7-1.5-.3-1.2.8-2.7 3-3.8 5.5-.8 1.8-1.3 3.8-1.3 5.2 0 1.5.4 2.5 1.2 2.5.5 0 1.2-.5 2-1.4l.5.6c-1.2 1.4-2.3 2-3.3 2-1.7 0-2.8-1.5-2.8-4.5z" fill="white"/>
</svg>
